<svg width="24" height="8" viewBox="0 0 24 8" fill="none" xmlns="http://www.w3.org/2000/svg">
<path d="M22.4648 2.77479L20.2336 0.526197L20.2335 0.526159C20.2316 0.524254 20.2308 0.522807 20.2303 0.521465C20.2296 0.519787 20.229 0.517393 20.229 0.51451C20.229 0.513044 20.2292 0.511705 20.2294 0.510523C20.2296 0.509378 20.23 0.508379 20.2303 0.507554C20.2308 0.506212 20.2316 0.504766 20.2335 0.50286L20.2336 0.50276C20.2355 0.5009 20.2364 0.500536 20.2367 0.500425C20.2373 0.500179 20.2383 0.49991 20.2397 0.49991C20.241 0.49991 20.2421 0.500179 20.2427 0.500439L22.4648 2.77479ZM22.4648 2.77479H22.5004L20.2459 0.502851L22.4648 2.77479ZM20.2459 7.07592L22.5004 4.80398H22.4648L20.2336 7.05257L20.2335 7.05261C20.2316 7.05452 20.2308 7.05596 20.2303 7.0573C20.2296 7.05898 20.229 7.06138 20.229 7.06426C20.229 7.06715 20.2296 7.06954 20.2303 7.07122C20.2308 7.07256 20.2316 7.07401 20.2335 7.07592L20.2336 7.07601C20.2355 7.07787 20.2364 7.07823 20.2367 7.07834C20.2373 7.07859 20.2383 7.07886 20.2397 7.07886C20.241 7.07886 20.2421 7.07859 20.2427 7.07833L20.2427 7.07832C20.2431 7.07819 20.2441 7.07778 20.2459 7.07592ZM0.5 3.80398H22.0483L22.0628 3.78938L22.0483 3.77479H11.7447H0.5V3.80398Z" fill="black" stroke="black"/>
</svg>
